<svg xmlns="http://www.w3.org/2000/svg" width="250" height="150" viewBox="0 0 250 150">
  <defs>
    <style>
      .cls-1 {
        fill: #ef482e;
        fill-rule: evenodd;
      }
    </style>
  </defs>
  <path id="Ciao" class="cls-1" d="M79.112,120.894a29.034,29.034,0,0,1-11.25,2.242q-13.8,0-20.325-9.4T41.012,88.809a95.069,95.069,0,0,1,6.075-32.344,86.8,86.8,0,0,1,16.5-28.549q10.424-11.729,21.675-11.73,12.3,0,12.3,17.078,0,8.28-4.725,17.768T82.712,60.519q-3.751,0-3.3-3.968t-1.5-3.968q-3.6,0-7.8,6.21t-4.2,10.35q0,5.523,4.5,5.52,8.4,0,18.3-9.746a82.613,82.613,0,0,0,16.35-23.029q6.447-13.281,6.45-23.288,0-13.625-12.9-13.628-14.85,0-29.325,10.781a98.312,98.312,0,0,0-24.6,26.91A163.221,163.221,0,0,0,28.262,77.51q-6.3,18.719-6.3,34.586t6.825,25.444q6.824,9.575,19.8,9.574t25.5-9.4a82.6,82.6,0,0,0,20.025-20.959,4.95,4.95,0,0,0,1.2-3.364q0-1.981-1.65-1.984t-4.35,3.278q-2.7,3.279-10.2,6.21h0Zm28.05-31.74a7.1,7.1,0,0,0,5.775-2.933,12.451,12.451,0,0,0,0-14.49,7.153,7.153,0,0,0-11.55,0,12.449,12.449,0,0,0,0,14.49A7.092,7.092,0,0,0,107.162,89.154ZM121.337,129a11.18,11.18,0,0,1-9.15-4.4,22.259,22.259,0,0,1-4.575-9.229,41.978,41.978,0,0,1-1.05-8.884q0-4.051-1.2-4.226-2.553,0-5.1,8.107a55.68,55.68,0,0,0-2.55,16.819q0,8.712,3.75,14.231a11.985,11.985,0,0,0,10.5,5.52q6.75,0,16.05-8.538t9.3-12.852q0-3.105-2.1-3.105a4.256,4.256,0,0,0-2.7,1.38Q126.961,129,121.337,129Zm48.074-13.282q-2.1,0-4.65,5.865a10.954,10.954,0,0,1-3.075,4.14,8.023,8.023,0,0,1-5.475,1.9q-8.252,0-8.25-8.97a15.8,15.8,0,0,1,2.4-9.056,7.187,7.187,0,0,1,6.15-3.536q3.747,0,6.9,3.622t4.95,3.623q1.8,0,3.9-2.674a8.752,8.752,0,0,0,2.1-5.434q0-7.762-9.9-8.107-6.6,0-18.6,10.177a39.857,39.857,0,0,0-9.3,12.334,35.13,35.13,0,0,0-3.9,16.129,11.449,11.449,0,0,0,2.775,7.935q2.773,3.105,7.95,3.105t13.575-10q2.7-3.449,3.45-3.45a0.639,0.639,0,0,1,.75.69,41.06,41.06,0,0,0,.9,9.315,7.224,7.224,0,0,0,2.475,4.054,8.429,8.429,0,0,0,5.1,1.293q3.375,0,7.725-3.277a34.485,34.485,0,0,0,6.6-6.21q7.048-9.141,7.05-10.868,0-1.553-1.875-1.552a3.407,3.407,0,0,0-2.7.949,37.6,37.6,0,0,1-4.125,3.536,6.027,6.027,0,0,1-3.9,1.207q-3.15,0-5.475-3.363a11.437,11.437,0,0,1-2.325-6.469l0.6-4.83q0-2.07-1.8-2.07h0Zm48.223,10.7a8.038,8.038,0,0,1-6.3,2.415q-4.128,0-6.9-4.226a17.488,17.488,0,0,1-2.775-9.833q0-5.6,2.4-7.676a16.771,16.771,0,0,0,4.65,10.522q4.05,4.14,11.1,4.14A7.134,7.134,0,0,1,217.634,126.414ZM211.709,96.4a7.41,7.41,0,0,0-5.55,2.329,8.444,8.444,0,0,0-2.25,6.123v0.69q-6,0-11.7,9.229t-5.7,17.078q0,7.851,3.6,11.9a11.543,11.543,0,0,0,9,4.054q7.65,0,14.925-8.366a51.585,51.585,0,0,0,10.425-18.2q2.25,0,5.475-3.968t3.225-5.692c0-1.148-.4-1.725-1.2-1.725a5.969,5.969,0,0,0-2.85.949,5.862,5.862,0,0,1-2.325.948q-0.675,0-1.125-1.552-3.752-13.8-13.95-13.8h0Z"/>
</svg>
